<svg width="32" height="32" viewBox="0 0 32 32" fill="none" xmlns="http://www.w3.org/2000/svg">
<path d="M12.0001 29.3333H20.0001C26.6667 29.3333 29.3334 26.6666 29.3334 20V12C29.3334 5.33329 26.6667 2.66663 20.0001 2.66663H12.0001C5.33341 2.66663 2.66675 5.33329 2.66675 12V20C2.66675 26.6666 5.33341 29.3333 12.0001 29.3333Z" stroke="#FBFDFE" stroke-width="1.5" stroke-linecap="round" stroke-linejoin="round"/>
<path d="M15.9999 20.6667C18.5772 20.6667 20.6666 18.5774 20.6666 16C20.6666 13.4227 18.5772 11.3334 15.9999 11.3334C13.4226 11.3334 11.3333 13.4227 11.3333 16C11.3333 18.5774 13.4226 20.6667 15.9999 20.6667Z" stroke="#FBFDFE" stroke-width="1.5" stroke-linecap="round" stroke-linejoin="round"/>
<path d="M23.5149 9.33329H23.5303" stroke="#FBFDFE" stroke-width="2" stroke-linecap="round" stroke-linejoin="round"/>
</svg>
